<mxfile host="drawio-plugin" agent="Mozilla/5.0 (X11; Linux x86_64) AppleWebKit/537.36 (KHTML, like Gecko) Chrome/122.0.0.0 Safari/537.36" modified="2024-12-14T10:23:19.823Z" etag="29AlA_SMIQQQKmIvnWMY" version="22.1.22" type="embed" pages="2">
  <diagram id="C5RBs43oDa-KdzZeNtuy" name="Structure">
    <mxGraphModel dx="2036" dy="1344" grid="0" gridSize="10" guides="1" tooltips="1" connect="1" arrows="1" fold="1" page="0" pageScale="1" pageWidth="827" pageHeight="1169" background="none" math="0" shadow="0">
      <root>
        <mxCell id="WIyWlLk6GJQsqaUBKTNV-0" />
        <mxCell id="WIyWlLk6GJQsqaUBKTNV-1" parent="WIyWlLk6GJQsqaUBKTNV-0" />
        <mxCell id="UhFkNUntWND5Q1ETPN0j-0" value="" style="rounded=0;whiteSpace=wrap;html=1;fillColor=#d5e8d4;strokeColor=#82b366;movable=1;resizable=1;rotatable=1;deletable=1;editable=1;locked=0;connectable=1;" parent="WIyWlLk6GJQsqaUBKTNV-1" vertex="1">
          <mxGeometry x="-220" y="191" width="1584" height="103" as="geometry" />
        </mxCell>
        <mxCell id="DAYwhRXH55ruIlpb_jp8-1" value="&lt;div&gt;Size Of Entry = 30 Bytes&lt;/div&gt;" style="text;html=1;align=center;verticalAlign=middle;whiteSpace=wrap;rounded=0;fontSize=16;" parent="WIyWlLk6GJQsqaUBKTNV-1" vertex="1">
          <mxGeometry x="-47" y="321" width="251" height="86" as="geometry" />
        </mxCell>
        <mxCell id="DAYwhRXH55ruIlpb_jp8-26" value="Max Size Of Entries = 3" style="text;html=1;align=center;verticalAlign=middle;whiteSpace=wrap;rounded=0;fontSize=16;fillColor=#d5e8d4;strokeColor=#82b366;" parent="WIyWlLk6GJQsqaUBKTNV-1" vertex="1">
          <mxGeometry x="-222" y="152" width="183" height="30" as="geometry" />
        </mxCell>
        <mxCell id="DAYwhRXH55ruIlpb_jp8-29" value="" style="group" parent="WIyWlLk6GJQsqaUBKTNV-1" vertex="1" connectable="0">
          <mxGeometry x="-60" y="196" width="362" height="89" as="geometry" />
        </mxCell>
        <mxCell id="DAYwhRXH55ruIlpb_jp8-30" value="&lt;b&gt;CreditCard&lt;/b&gt;" style="text;html=1;align=center;verticalAlign=middle;whiteSpace=wrap;rounded=0;fontSize=16;container=0;" parent="DAYwhRXH55ruIlpb_jp8-29" vertex="1">
          <mxGeometry x="150" width="60" height="30" as="geometry" />
        </mxCell>
        <mxCell id="DAYwhRXH55ruIlpb_jp8-31" value="&lt;div&gt;Amount&lt;/div&gt;(4B)" style="rounded=0;whiteSpace=wrap;html=1;fillColor=#fff2cc;strokeColor=#d6b656;container=0;" parent="DAYwhRXH55ruIlpb_jp8-29" vertex="1">
          <mxGeometry x="286" y="29" width="76" height="60" as="geometry" />
        </mxCell>
        <mxCell id="DAYwhRXH55ruIlpb_jp8-32" value="&lt;div&gt;ID&lt;/div&gt;(4B)" style="rounded=0;whiteSpace=wrap;html=1;fillColor=#fff2cc;strokeColor=#d6b656;container=0;" parent="DAYwhRXH55ruIlpb_jp8-29" vertex="1">
          <mxGeometry y="29" width="76" height="60" as="geometry" />
        </mxCell>
        <mxCell id="DAYwhRXH55ruIlpb_jp8-33" value="&lt;div&gt;Pin&lt;/div&gt;(&amp;gt;=16B)" style="rounded=0;whiteSpace=wrap;html=1;fillColor=#fff2cc;strokeColor=#d6b656;container=0;" parent="DAYwhRXH55ruIlpb_jp8-29" vertex="1">
          <mxGeometry x="115" y="29" width="171" height="60" as="geometry" />
        </mxCell>
        <mxCell id="DAYwhRXH55ruIlpb_jp8-34" value="&lt;div&gt;Pin len&lt;/div&gt;(1B)" style="rounded=0;whiteSpace=wrap;html=1;fillColor=#ffe6cc;strokeColor=#d79b00;container=0;" parent="DAYwhRXH55ruIlpb_jp8-29" vertex="1">
          <mxGeometry x="74" y="29" width="42" height="60" as="geometry" />
        </mxCell>
        <mxCell id="DAYwhRXH55ruIlpb_jp8-78" value="" style="endArrow=none;html=1;rounded=0;fontSize=12;startSize=8;endSize=8;curved=1;" parent="WIyWlLk6GJQsqaUBKTNV-1" edge="1">
          <mxGeometry width="50" height="50" relative="1" as="geometry">
            <mxPoint x="554" y="1397" as="sourcePoint" />
            <mxPoint x="546" y="881" as="targetPoint" />
          </mxGeometry>
        </mxCell>
        <mxCell id="DAYwhRXH55ruIlpb_jp8-95" value="" style="group" parent="WIyWlLk6GJQsqaUBKTNV-1" vertex="1" connectable="0">
          <mxGeometry x="-220" y="957" width="695" height="373" as="geometry" />
        </mxCell>
        <mxCell id="DAYwhRXH55ruIlpb_jp8-72" value="" style="ellipse;shape=cloud;whiteSpace=wrap;html=1;" parent="DAYwhRXH55ruIlpb_jp8-95" vertex="1">
          <mxGeometry x="158" y="43" width="537" height="330" as="geometry" />
        </mxCell>
        <mxCell id="DAYwhRXH55ruIlpb_jp8-79" value="" style="group" parent="DAYwhRXH55ruIlpb_jp8-95" vertex="1" connectable="0">
          <mxGeometry width="614" height="256" as="geometry" />
        </mxCell>
        <mxCell id="DAYwhRXH55ruIlpb_jp8-74" value="" style="ellipse;shape=cloud;whiteSpace=wrap;html=1;" parent="DAYwhRXH55ruIlpb_jp8-79" vertex="1">
          <mxGeometry y="140" width="167" height="126" as="geometry" />
        </mxCell>
        <mxCell id="DAYwhRXH55ruIlpb_jp8-61" value="&lt;b&gt;CreditCard&lt;/b&gt;" style="text;html=1;align=center;verticalAlign=middle;whiteSpace=wrap;rounded=0;fontSize=16;container=0;" parent="DAYwhRXH55ruIlpb_jp8-79" vertex="1">
          <mxGeometry x="402" y="152" width="60" height="30" as="geometry" />
        </mxCell>
        <mxCell id="DAYwhRXH55ruIlpb_jp8-65" value="&lt;div&gt;Pin len&lt;/div&gt;(1B)" style="rounded=0;whiteSpace=wrap;html=1;fillColor=#ffe6cc;strokeColor=#d79b00;container=0;" parent="DAYwhRXH55ruIlpb_jp8-79" vertex="1">
          <mxGeometry x="326" y="181" width="42" height="60" as="geometry" />
        </mxCell>
        <mxCell id="DAYwhRXH55ruIlpb_jp8-75" style="edgeStyle=none;curved=1;rounded=0;orthogonalLoop=1;jettySize=auto;html=1;fontSize=12;startSize=8;endSize=8;" parent="DAYwhRXH55ruIlpb_jp8-79" source="DAYwhRXH55ruIlpb_jp8-67" target="DAYwhRXH55ruIlpb_jp8-74" edge="1">
          <mxGeometry relative="1" as="geometry" />
        </mxCell>
        <mxCell id="DAYwhRXH55ruIlpb_jp8-67" value="&lt;font data-darkreader-inline-color=&quot;&quot; style=&quot;--darkreader-inline-color: #1aff8d; font-size: 25px;&quot; color=&quot;#00ff80&quot;&gt;&lt;b&gt;KEY&lt;/b&gt;&lt;/font&gt;" style="text;html=1;align=center;verticalAlign=middle;whiteSpace=wrap;rounded=0;fontSize=16;" parent="DAYwhRXH55ruIlpb_jp8-79" vertex="1">
          <mxGeometry x="75" y="36" width="65" height="25" as="geometry" />
        </mxCell>
        <mxCell id="DAYwhRXH55ruIlpb_jp8-68" value="&lt;font data-darkreader-inline-color=&quot;&quot; style=&quot;--darkreader-inline-color: #1aff8d;&quot; color=&quot;#00ff80&quot;&gt;&lt;b&gt;&lt;font style=&quot;font-size: 25px;&quot;&gt;Value&lt;/font&gt;&lt;/b&gt;&lt;/font&gt;" style="text;html=1;align=center;verticalAlign=middle;whiteSpace=wrap;rounded=0;fontSize=16;" parent="DAYwhRXH55ruIlpb_jp8-79" vertex="1">
          <mxGeometry x="213" y="10" width="60" height="30" as="geometry" />
        </mxCell>
        <mxCell id="DAYwhRXH55ruIlpb_jp8-70" value="&lt;i&gt;Approach 1&lt;br&gt;&lt;/i&gt;" style="text;html=1;align=center;verticalAlign=middle;whiteSpace=wrap;rounded=0;fontSize=16;rotation=38;" parent="DAYwhRXH55ruIlpb_jp8-79" vertex="1">
          <mxGeometry x="452" y="31" width="109" height="30" as="geometry" />
        </mxCell>
        <mxCell id="DAYwhRXH55ruIlpb_jp8-73" value="&lt;div&gt;ID&lt;/div&gt;(4B)" style="rounded=0;whiteSpace=wrap;html=1;fillColor=#fff2cc;strokeColor=#d6b656;container=0;" parent="DAYwhRXH55ruIlpb_jp8-79" vertex="1">
          <mxGeometry x="47" y="173" width="76" height="60" as="geometry" />
        </mxCell>
        <mxCell id="9RUNyQODaoSe4tNgS9Tt-1" value="&lt;div&gt;ID&lt;/div&gt;(4B)" style="rounded=0;whiteSpace=wrap;html=1;fillColor=#fff2cc;strokeColor=#d6b656;container=0;" parent="DAYwhRXH55ruIlpb_jp8-79" vertex="1">
          <mxGeometry x="250" y="181" width="76" height="60" as="geometry" />
        </mxCell>
        <mxCell id="DAYwhRXH55ruIlpb_jp8-77" style="edgeStyle=none;curved=1;rounded=0;orthogonalLoop=1;jettySize=auto;html=1;fontSize=12;startSize=8;endSize=8;" parent="DAYwhRXH55ruIlpb_jp8-95" source="DAYwhRXH55ruIlpb_jp8-68" edge="1">
          <mxGeometry relative="1" as="geometry">
            <mxPoint x="291.8337661701844" y="75.25379214039572" as="targetPoint" />
          </mxGeometry>
        </mxCell>
        <mxCell id="DAYwhRXH55ruIlpb_jp8-64" value="&lt;div&gt;Pin&lt;/div&gt;(&amp;gt;=16B)" style="rounded=0;whiteSpace=wrap;html=1;fillColor=#fff2cc;strokeColor=#d6b656;container=0;" parent="DAYwhRXH55ruIlpb_jp8-95" vertex="1">
          <mxGeometry x="369" y="181" width="171" height="60" as="geometry" />
        </mxCell>
        <mxCell id="DAYwhRXH55ruIlpb_jp8-62" value="&lt;div&gt;Amount&lt;/div&gt;(4B)" style="rounded=0;whiteSpace=wrap;html=1;fillColor=#fff2cc;strokeColor=#d6b656;container=0;" parent="DAYwhRXH55ruIlpb_jp8-95" vertex="1">
          <mxGeometry x="540" y="181" width="76" height="60" as="geometry" />
        </mxCell>
        <mxCell id="9RUNyQODaoSe4tNgS9Tt-15" value="" style="group" parent="WIyWlLk6GJQsqaUBKTNV-1" vertex="1" connectable="0">
          <mxGeometry x="648" y="941" width="695" height="373" as="geometry" />
        </mxCell>
        <mxCell id="9RUNyQODaoSe4tNgS9Tt-16" value="" style="ellipse;shape=cloud;whiteSpace=wrap;html=1;" parent="9RUNyQODaoSe4tNgS9Tt-15" vertex="1">
          <mxGeometry x="158" y="43" width="537" height="330" as="geometry" />
        </mxCell>
        <mxCell id="9RUNyQODaoSe4tNgS9Tt-17" value="" style="group" parent="9RUNyQODaoSe4tNgS9Tt-15" vertex="1" connectable="0">
          <mxGeometry width="614" height="256" as="geometry" />
        </mxCell>
        <mxCell id="9RUNyQODaoSe4tNgS9Tt-18" value="" style="ellipse;shape=cloud;whiteSpace=wrap;html=1;" parent="9RUNyQODaoSe4tNgS9Tt-17" vertex="1">
          <mxGeometry y="140" width="167" height="126" as="geometry" />
        </mxCell>
        <mxCell id="9RUNyQODaoSe4tNgS9Tt-19" value="&lt;b&gt;CreditCard&lt;/b&gt;" style="text;html=1;align=center;verticalAlign=middle;whiteSpace=wrap;rounded=0;fontSize=16;container=0;" parent="9RUNyQODaoSe4tNgS9Tt-17" vertex="1">
          <mxGeometry x="402" y="152" width="60" height="30" as="geometry" />
        </mxCell>
        <mxCell id="9RUNyQODaoSe4tNgS9Tt-20" value="&lt;div&gt;Pin len&lt;/div&gt;(1B)" style="rounded=0;whiteSpace=wrap;html=1;fillColor=#ffe6cc;strokeColor=#d79b00;container=0;" parent="9RUNyQODaoSe4tNgS9Tt-17" vertex="1">
          <mxGeometry x="326" y="181" width="42" height="60" as="geometry" />
        </mxCell>
        <mxCell id="9RUNyQODaoSe4tNgS9Tt-21" style="edgeStyle=none;curved=1;rounded=0;orthogonalLoop=1;jettySize=auto;html=1;fontSize=12;startSize=8;endSize=8;" parent="9RUNyQODaoSe4tNgS9Tt-17" source="9RUNyQODaoSe4tNgS9Tt-22" target="9RUNyQODaoSe4tNgS9Tt-18" edge="1">
          <mxGeometry relative="1" as="geometry" />
        </mxCell>
        <mxCell id="9RUNyQODaoSe4tNgS9Tt-22" value="&lt;font data-darkreader-inline-color=&quot;&quot; style=&quot;--darkreader-inline-color: #1aff8d; font-size: 25px;&quot; color=&quot;#00ff80&quot;&gt;&lt;b&gt;KEY&lt;/b&gt;&lt;/font&gt;" style="text;html=1;align=center;verticalAlign=middle;whiteSpace=wrap;rounded=0;fontSize=16;" parent="9RUNyQODaoSe4tNgS9Tt-17" vertex="1">
          <mxGeometry x="75" y="36" width="65" height="25" as="geometry" />
        </mxCell>
        <mxCell id="9RUNyQODaoSe4tNgS9Tt-23" value="&lt;font data-darkreader-inline-color=&quot;&quot; style=&quot;--darkreader-inline-color: #1aff8d;&quot; color=&quot;#00ff80&quot;&gt;&lt;b&gt;&lt;font style=&quot;font-size: 25px;&quot;&gt;Value&lt;/font&gt;&lt;/b&gt;&lt;/font&gt;" style="text;html=1;align=center;verticalAlign=middle;whiteSpace=wrap;rounded=0;fontSize=16;" parent="9RUNyQODaoSe4tNgS9Tt-17" vertex="1">
          <mxGeometry x="213" y="10" width="60" height="30" as="geometry" />
        </mxCell>
        <mxCell id="9RUNyQODaoSe4tNgS9Tt-24" value="&lt;i&gt;Approach 2&lt;br&gt;&lt;/i&gt;" style="text;html=1;align=center;verticalAlign=middle;whiteSpace=wrap;rounded=0;fontSize=16;rotation=38;" parent="9RUNyQODaoSe4tNgS9Tt-17" vertex="1">
          <mxGeometry x="452" y="31" width="109" height="30" as="geometry" />
        </mxCell>
        <mxCell id="9RUNyQODaoSe4tNgS9Tt-25" value="&lt;div&gt;ID&lt;/div&gt;(4B)" style="rounded=0;whiteSpace=wrap;html=1;fillColor=#fff2cc;strokeColor=#d6b656;container=0;" parent="9RUNyQODaoSe4tNgS9Tt-17" vertex="1">
          <mxGeometry x="47" y="173" width="76" height="60" as="geometry" />
        </mxCell>
        <mxCell id="9RUNyQODaoSe4tNgS9Tt-26" style="edgeStyle=none;curved=1;rounded=0;orthogonalLoop=1;jettySize=auto;html=1;fontSize=12;startSize=8;endSize=8;" parent="9RUNyQODaoSe4tNgS9Tt-15" source="9RUNyQODaoSe4tNgS9Tt-23" edge="1">
          <mxGeometry relative="1" as="geometry">
            <mxPoint x="291.8337661701844" y="75.25379214039572" as="targetPoint" />
          </mxGeometry>
        </mxCell>
        <mxCell id="9RUNyQODaoSe4tNgS9Tt-27" value="&lt;div&gt;Pin&lt;/div&gt;(&amp;gt;=16B)" style="rounded=0;whiteSpace=wrap;html=1;fillColor=#fff2cc;strokeColor=#d6b656;container=0;" parent="9RUNyQODaoSe4tNgS9Tt-15" vertex="1">
          <mxGeometry x="369" y="181" width="171" height="60" as="geometry" />
        </mxCell>
        <mxCell id="9RUNyQODaoSe4tNgS9Tt-28" value="&lt;div&gt;Amount&lt;/div&gt;(4B)" style="rounded=0;whiteSpace=wrap;html=1;fillColor=#fff2cc;strokeColor=#d6b656;container=0;" parent="9RUNyQODaoSe4tNgS9Tt-15" vertex="1">
          <mxGeometry x="540" y="181" width="76" height="60" as="geometry" />
        </mxCell>
        <mxCell id="9RUNyQODaoSe4tNgS9Tt-39" value="" style="group" parent="WIyWlLk6GJQsqaUBKTNV-1" vertex="1" connectable="0">
          <mxGeometry x="460" y="196" width="362" height="89" as="geometry" />
        </mxCell>
        <mxCell id="9RUNyQODaoSe4tNgS9Tt-40" value="&lt;b&gt;CreditCard&lt;/b&gt;" style="text;html=1;align=center;verticalAlign=middle;whiteSpace=wrap;rounded=0;fontSize=16;container=0;" parent="9RUNyQODaoSe4tNgS9Tt-39" vertex="1">
          <mxGeometry x="150" width="60" height="30" as="geometry" />
        </mxCell>
        <mxCell id="9RUNyQODaoSe4tNgS9Tt-41" value="&lt;div&gt;Amount&lt;/div&gt;(4B)" style="rounded=0;whiteSpace=wrap;html=1;fillColor=#fff2cc;strokeColor=#d6b656;container=0;" parent="9RUNyQODaoSe4tNgS9Tt-39" vertex="1">
          <mxGeometry x="286" y="29" width="76" height="60" as="geometry" />
        </mxCell>
        <mxCell id="9RUNyQODaoSe4tNgS9Tt-42" value="&lt;div&gt;ID&lt;/div&gt;(4B)" style="rounded=0;whiteSpace=wrap;html=1;fillColor=#fff2cc;strokeColor=#d6b656;container=0;" parent="9RUNyQODaoSe4tNgS9Tt-39" vertex="1">
          <mxGeometry y="29" width="76" height="60" as="geometry" />
        </mxCell>
        <mxCell id="9RUNyQODaoSe4tNgS9Tt-43" value="&lt;div&gt;Pin&lt;/div&gt;(&amp;gt;=16B)" style="rounded=0;whiteSpace=wrap;html=1;fillColor=#fff2cc;strokeColor=#d6b656;container=0;" parent="9RUNyQODaoSe4tNgS9Tt-39" vertex="1">
          <mxGeometry x="115" y="29" width="171" height="60" as="geometry" />
        </mxCell>
        <mxCell id="9RUNyQODaoSe4tNgS9Tt-44" value="&lt;div&gt;Pin len&lt;/div&gt;(1B)" style="rounded=0;whiteSpace=wrap;html=1;fillColor=#ffe6cc;strokeColor=#d79b00;container=0;" parent="9RUNyQODaoSe4tNgS9Tt-39" vertex="1">
          <mxGeometry x="74" y="29" width="42" height="60" as="geometry" />
        </mxCell>
        <mxCell id="11" value="" style="group" parent="WIyWlLk6GJQsqaUBKTNV-1" vertex="1" connectable="0">
          <mxGeometry x="387" y="195" width="76" height="90" as="geometry" />
        </mxCell>
        <mxCell id="9RUNyQODaoSe4tNgS9Tt-38" value="&lt;div&gt;ID&lt;/div&gt;(4B)" style="rounded=0;whiteSpace=wrap;html=1;fillColor=#fff2cc;strokeColor=#d6b656;container=0;" parent="11" vertex="1">
          <mxGeometry x="-10" y="30" width="76" height="60" as="geometry" />
        </mxCell>
        <mxCell id="8" value="&lt;b&gt;&lt;font style=&quot;font-size: 16px;&quot;&gt;KEY&lt;/font&gt;&lt;/b&gt;" style="text;html=1;strokeColor=none;fillColor=none;align=center;verticalAlign=middle;whiteSpace=wrap;rounded=0;" parent="11" vertex="1">
          <mxGeometry x="-2" width="60" height="30" as="geometry" />
        </mxCell>
        <mxCell id="12" value="" style="group" parent="WIyWlLk6GJQsqaUBKTNV-1" vertex="1" connectable="0">
          <mxGeometry x="-143" y="195" width="76" height="90" as="geometry" />
        </mxCell>
        <mxCell id="9RUNyQODaoSe4tNgS9Tt-36" value="&lt;div&gt;ID&lt;/div&gt;(4B)" style="rounded=0;whiteSpace=wrap;html=1;fillColor=#fff2cc;strokeColor=#d6b656;container=0;" parent="12" vertex="1">
          <mxGeometry y="30" width="76" height="60" as="geometry" />
        </mxCell>
        <mxCell id="6" value="&lt;b&gt;&lt;font style=&quot;font-size: 16px;&quot;&gt;KEY&lt;/font&gt;&lt;/b&gt;" style="text;html=1;strokeColor=none;fillColor=none;align=center;verticalAlign=middle;whiteSpace=wrap;rounded=0;" parent="12" vertex="1">
          <mxGeometry x="8" width="60" height="30" as="geometry" />
        </mxCell>
        <mxCell id="18" value="" style="group" parent="WIyWlLk6GJQsqaUBKTNV-1" vertex="1" connectable="0">
          <mxGeometry x="-202" y="195" width="51" height="90" as="geometry" />
        </mxCell>
        <mxCell id="16" value="&lt;div&gt;EXISTS&lt;/div&gt;(1B)" style="rounded=0;whiteSpace=wrap;html=1;fillColor=#dae8fc;strokeColor=#6c8ebf;container=0;" parent="18" vertex="1">
          <mxGeometry y="30" width="51" height="60" as="geometry" />
        </mxCell>
        <mxCell id="17" value="&lt;b&gt;&lt;font style=&quot;font-size: 16px;&quot;&gt;FLAG&lt;/font&gt;&lt;/b&gt;" style="text;html=1;strokeColor=none;fillColor=none;align=center;verticalAlign=middle;whiteSpace=wrap;rounded=0;" parent="18" vertex="1">
          <mxGeometry x="8" width="39" height="30" as="geometry" />
        </mxCell>
        <mxCell id="19" value="" style="group" parent="WIyWlLk6GJQsqaUBKTNV-1" vertex="1" connectable="0">
          <mxGeometry x="318" y="195" width="51" height="90" as="geometry" />
        </mxCell>
        <mxCell id="20" value="&lt;div&gt;EXISTS&lt;/div&gt;(1B)" style="rounded=0;whiteSpace=wrap;html=1;fillColor=#dae8fc;strokeColor=#6c8ebf;container=0;" parent="19" vertex="1">
          <mxGeometry y="30" width="51" height="60" as="geometry" />
        </mxCell>
        <mxCell id="21" value="&lt;b&gt;&lt;font style=&quot;font-size: 16px;&quot;&gt;FLAG&lt;/font&gt;&lt;/b&gt;" style="text;html=1;strokeColor=none;fillColor=none;align=center;verticalAlign=middle;whiteSpace=wrap;rounded=0;" parent="19" vertex="1">
          <mxGeometry x="8" width="39" height="30" as="geometry" />
        </mxCell>
        <mxCell id="26" value="" style="group" parent="WIyWlLk6GJQsqaUBKTNV-1" vertex="1" connectable="0">
          <mxGeometry x="-204" y="285" width="511" height="39" as="geometry" />
        </mxCell>
        <mxCell id="9RUNyQODaoSe4tNgS9Tt-56" value="" style="endArrow=none;dashed=1;html=1;dashPattern=1 3;strokeWidth=2;rounded=0;fontSize=12;startSize=8;endSize=8;curved=1;entryX=0;entryY=1;entryDx=0;entryDy=0;" parent="26" edge="1">
          <mxGeometry width="50" height="50" relative="1" as="geometry">
            <mxPoint x="1" y="39" as="sourcePoint" />
            <mxPoint x="1" as="targetPoint" />
          </mxGeometry>
        </mxCell>
        <mxCell id="13" value="" style="group" parent="26" vertex="1" connectable="0">
          <mxGeometry y="33" width="511" height="5" as="geometry" />
        </mxCell>
        <mxCell id="9RUNyQODaoSe4tNgS9Tt-58" value="" style="endArrow=none;dashed=1;html=1;dashPattern=1 3;strokeWidth=2;rounded=0;fontSize=12;startSize=8;endSize=8;curved=1;" parent="13" edge="1">
          <mxGeometry width="50" height="50" relative="1" as="geometry">
            <mxPoint y="5" as="sourcePoint" />
            <mxPoint x="510.99999999999994" y="5" as="targetPoint" />
          </mxGeometry>
        </mxCell>
        <mxCell id="25" value="" style="endArrow=none;dashed=1;html=1;dashPattern=1 3;strokeWidth=2;rounded=0;fontSize=12;startSize=8;endSize=8;curved=1;entryX=0;entryY=1;entryDx=0;entryDy=0;" parent="26" edge="1">
          <mxGeometry width="50" height="50" relative="1" as="geometry">
            <mxPoint x="507" y="39" as="sourcePoint" />
            <mxPoint x="507" as="targetPoint" />
          </mxGeometry>
        </mxCell>
        <mxCell id="27" value="Stored Entries = 3" style="text;html=1;align=center;verticalAlign=middle;whiteSpace=wrap;rounded=0;fontSize=16;fillColor=#d5e8d4;strokeColor=#82b366;" parent="WIyWlLk6GJQsqaUBKTNV-1" vertex="1">
          <mxGeometry x="-202" y="112" width="151" height="30" as="geometry" />
        </mxCell>
        <mxCell id="39" value="" style="rounded=0;whiteSpace=wrap;html=1;fillColor=#d5e8d4;strokeColor=#82b366;movable=1;resizable=1;rotatable=1;deletable=1;editable=1;locked=0;connectable=1;" parent="WIyWlLk6GJQsqaUBKTNV-1" vertex="1">
          <mxGeometry x="-208" y="571" width="1584" height="236" as="geometry" />
        </mxCell>
        <mxCell id="41" value="Stored Entries = 3" style="text;html=1;align=center;verticalAlign=middle;whiteSpace=wrap;rounded=0;fontSize=16;fillColor=#d5e8d4;strokeColor=#82b366;" parent="WIyWlLk6GJQsqaUBKTNV-1" vertex="1">
          <mxGeometry x="-195" y="492" width="151" height="30" as="geometry" />
        </mxCell>
        <mxCell id="42" value="Max Size Of Entries = 6" style="text;html=1;align=center;verticalAlign=middle;whiteSpace=wrap;rounded=0;fontSize=16;fillColor=#d5e8d4;strokeColor=#82b366;" parent="WIyWlLk6GJQsqaUBKTNV-1" vertex="1">
          <mxGeometry x="-208" y="531" width="183" height="30" as="geometry" />
        </mxCell>
        <mxCell id="45" value="" style="group" parent="WIyWlLk6GJQsqaUBKTNV-1" vertex="1" connectable="0">
          <mxGeometry x="838" y="195" width="504" height="90" as="geometry" />
        </mxCell>
        <mxCell id="22" value="" style="group" parent="45" vertex="1" connectable="0">
          <mxGeometry width="51" height="90" as="geometry" />
        </mxCell>
        <mxCell id="23" value="&lt;div&gt;EXISTS&lt;/div&gt;(1B)" style="rounded=0;whiteSpace=wrap;html=1;fillColor=#dae8fc;strokeColor=#6c8ebf;container=0;" parent="22" vertex="1">
          <mxGeometry y="30" width="51" height="60" as="geometry" />
        </mxCell>
        <mxCell id="24" value="&lt;b&gt;&lt;font style=&quot;font-size: 16px;&quot;&gt;FLAG&lt;/font&gt;&lt;/b&gt;" style="text;html=1;strokeColor=none;fillColor=none;align=center;verticalAlign=middle;whiteSpace=wrap;rounded=0;" parent="22" vertex="1">
          <mxGeometry x="8" width="39" height="30" as="geometry" />
        </mxCell>
        <mxCell id="44" value="" style="group" parent="45" vertex="1" connectable="0">
          <mxGeometry x="59" width="445" height="90" as="geometry" />
        </mxCell>
        <mxCell id="9RUNyQODaoSe4tNgS9Tt-46" value="" style="group" parent="44" vertex="1" connectable="0">
          <mxGeometry x="83" y="1" width="362" height="89" as="geometry" />
        </mxCell>
        <mxCell id="9RUNyQODaoSe4tNgS9Tt-47" value="&lt;b&gt;CreditCard&lt;/b&gt;" style="text;html=1;align=center;verticalAlign=middle;whiteSpace=wrap;rounded=0;fontSize=16;container=0;" parent="9RUNyQODaoSe4tNgS9Tt-46" vertex="1">
          <mxGeometry x="150" width="60" height="30" as="geometry" />
        </mxCell>
        <mxCell id="9RUNyQODaoSe4tNgS9Tt-48" value="&lt;div&gt;Amount&lt;/div&gt;(4B)" style="rounded=0;whiteSpace=wrap;html=1;fillColor=#fff2cc;strokeColor=#d6b656;container=0;" parent="9RUNyQODaoSe4tNgS9Tt-46" vertex="1">
          <mxGeometry x="286" y="29" width="76" height="60" as="geometry" />
        </mxCell>
        <mxCell id="9RUNyQODaoSe4tNgS9Tt-49" value="&lt;div&gt;ID&lt;/div&gt;(4B)" style="rounded=0;whiteSpace=wrap;html=1;fillColor=#fff2cc;strokeColor=#d6b656;container=0;" parent="9RUNyQODaoSe4tNgS9Tt-46" vertex="1">
          <mxGeometry y="29" width="76" height="60" as="geometry" />
        </mxCell>
        <mxCell id="9RUNyQODaoSe4tNgS9Tt-50" value="&lt;div&gt;Pin&lt;/div&gt;(&amp;gt;=16B)" style="rounded=0;whiteSpace=wrap;html=1;fillColor=#fff2cc;strokeColor=#d6b656;container=0;" parent="9RUNyQODaoSe4tNgS9Tt-46" vertex="1">
          <mxGeometry x="115" y="29" width="171" height="60" as="geometry" />
        </mxCell>
        <mxCell id="9RUNyQODaoSe4tNgS9Tt-51" value="&lt;div&gt;Pin len&lt;/div&gt;(1B)" style="rounded=0;whiteSpace=wrap;html=1;fillColor=#ffe6cc;strokeColor=#d79b00;container=0;" parent="9RUNyQODaoSe4tNgS9Tt-46" vertex="1">
          <mxGeometry x="74" y="29" width="42" height="60" as="geometry" />
        </mxCell>
        <mxCell id="10" value="" style="group" parent="44" vertex="1" connectable="0">
          <mxGeometry width="76" height="90" as="geometry" />
        </mxCell>
        <mxCell id="9RUNyQODaoSe4tNgS9Tt-45" value="&lt;div&gt;ID&lt;/div&gt;(4B)" style="rounded=0;whiteSpace=wrap;html=1;fillColor=#fff2cc;strokeColor=#d6b656;container=0;" parent="10" vertex="1">
          <mxGeometry y="30" width="76" height="60" as="geometry" />
        </mxCell>
        <mxCell id="9" value="&lt;b&gt;&lt;font style=&quot;font-size: 16px;&quot;&gt;KEY&lt;/font&gt;&lt;/b&gt;" style="text;html=1;strokeColor=none;fillColor=none;align=center;verticalAlign=middle;whiteSpace=wrap;rounded=0;" parent="10" vertex="1">
          <mxGeometry x="8" width="60" height="30" as="geometry" />
        </mxCell>
        <mxCell id="46" value="" style="group" parent="WIyWlLk6GJQsqaUBKTNV-1" vertex="1" connectable="0">
          <mxGeometry x="335" y="572" width="504" height="90" as="geometry" />
        </mxCell>
        <mxCell id="47" value="" style="group" parent="46" vertex="1" connectable="0">
          <mxGeometry width="51" height="90" as="geometry" />
        </mxCell>
        <mxCell id="48" value="1&lt;div&gt;&lt;/div&gt;" style="rounded=0;whiteSpace=wrap;html=1;fillColor=#dae8fc;strokeColor=#6c8ebf;container=0;" parent="47" vertex="1">
          <mxGeometry y="30" width="51" height="60" as="geometry" />
        </mxCell>
        <mxCell id="49" value="&lt;b&gt;&lt;font style=&quot;font-size: 16px;&quot;&gt;FLAG&lt;/font&gt;&lt;/b&gt;" style="text;html=1;strokeColor=none;fillColor=none;align=center;verticalAlign=middle;whiteSpace=wrap;rounded=0;" parent="47" vertex="1">
          <mxGeometry x="8" width="39" height="30" as="geometry" />
        </mxCell>
        <mxCell id="50" value="" style="group" parent="46" vertex="1" connectable="0">
          <mxGeometry x="59" width="445" height="90" as="geometry" />
        </mxCell>
        <mxCell id="51" value="" style="group" parent="50" vertex="1" connectable="0">
          <mxGeometry x="83" y="1" width="362" height="89" as="geometry" />
        </mxCell>
        <mxCell id="52" value="&lt;b&gt;CreditCard&lt;/b&gt;" style="text;html=1;align=center;verticalAlign=middle;whiteSpace=wrap;rounded=0;fontSize=16;container=0;" parent="51" vertex="1">
          <mxGeometry x="150" width="60" height="30" as="geometry" />
        </mxCell>
        <mxCell id="53" value="150&lt;div&gt;&lt;/div&gt;" style="rounded=0;whiteSpace=wrap;html=1;fillColor=#fff2cc;strokeColor=#d6b656;container=0;" parent="51" vertex="1">
          <mxGeometry x="286" y="29" width="76" height="60" as="geometry" />
        </mxCell>
        <mxCell id="54" value="2004&lt;div&gt;&lt;/div&gt;" style="rounded=0;whiteSpace=wrap;html=1;fillColor=#fff2cc;strokeColor=#d6b656;container=0;" parent="51" vertex="1">
          <mxGeometry y="29" width="76" height="60" as="geometry" />
        </mxCell>
        <mxCell id="55" value="0004&lt;div&gt;&lt;/div&gt;" style="rounded=0;whiteSpace=wrap;html=1;fillColor=#fff2cc;strokeColor=#d6b656;container=0;" parent="51" vertex="1">
          <mxGeometry x="115" y="29" width="171" height="60" as="geometry" />
        </mxCell>
        <mxCell id="56" value="4&lt;div&gt;&lt;/div&gt;" style="rounded=0;whiteSpace=wrap;html=1;fillColor=#ffe6cc;strokeColor=#d79b00;container=0;" parent="51" vertex="1">
          <mxGeometry x="74" y="29" width="42" height="60" as="geometry" />
        </mxCell>
        <mxCell id="57" value="" style="group" parent="50" vertex="1" connectable="0">
          <mxGeometry width="76" height="90" as="geometry" />
        </mxCell>
        <mxCell id="58" value="2004&lt;div&gt;&lt;/div&gt;" style="rounded=0;whiteSpace=wrap;html=1;fillColor=#fff2cc;strokeColor=#d6b656;container=0;" parent="57" vertex="1">
          <mxGeometry y="30" width="76" height="60" as="geometry" />
        </mxCell>
        <mxCell id="59" value="&lt;b&gt;&lt;font style=&quot;font-size: 16px;&quot;&gt;KEY&lt;/font&gt;&lt;/b&gt;" style="text;html=1;strokeColor=none;fillColor=none;align=center;verticalAlign=middle;whiteSpace=wrap;rounded=0;" parent="57" vertex="1">
          <mxGeometry x="8" width="60" height="30" as="geometry" />
        </mxCell>
        <mxCell id="66" value="" style="group" parent="WIyWlLk6GJQsqaUBKTNV-1" vertex="1" connectable="0">
          <mxGeometry x="-196" y="572" width="498" height="90" as="geometry" />
        </mxCell>
        <mxCell id="62" value="PREVIOUSLY USED" style="rounded=0;whiteSpace=wrap;html=1;" parent="66" vertex="1">
          <mxGeometry x="51" y="30" width="447" height="60" as="geometry" />
        </mxCell>
        <mxCell id="63" value="" style="group" parent="66" vertex="1" connectable="0">
          <mxGeometry width="51" height="90" as="geometry" />
        </mxCell>
        <mxCell id="64" value="0&lt;div&gt;&lt;/div&gt;" style="rounded=0;whiteSpace=wrap;html=1;fillColor=#dae8fc;strokeColor=#6c8ebf;container=0;" parent="63" vertex="1">
          <mxGeometry y="30" width="51" height="60" as="geometry" />
        </mxCell>
        <mxCell id="65" value="&lt;b&gt;&lt;font style=&quot;font-size: 16px;&quot;&gt;FLAG&lt;/font&gt;&lt;/b&gt;" style="text;html=1;strokeColor=none;fillColor=none;align=center;verticalAlign=middle;whiteSpace=wrap;rounded=0;" parent="63" vertex="1">
          <mxGeometry x="8" width="39" height="30" as="geometry" />
        </mxCell>
        <mxCell id="67" value="" style="group" parent="WIyWlLk6GJQsqaUBKTNV-1" vertex="1" connectable="0">
          <mxGeometry x="864" y="572" width="498" height="90" as="geometry" />
        </mxCell>
        <mxCell id="68" value="PREVIOUSLY USED" style="rounded=0;whiteSpace=wrap;html=1;" parent="67" vertex="1">
          <mxGeometry x="51" y="30" width="447" height="60" as="geometry" />
        </mxCell>
        <mxCell id="69" value="" style="group" parent="67" vertex="1" connectable="0">
          <mxGeometry width="51" height="90" as="geometry" />
        </mxCell>
        <mxCell id="70" value="0&lt;div&gt;&lt;/div&gt;" style="rounded=0;whiteSpace=wrap;html=1;fillColor=#dae8fc;strokeColor=#6c8ebf;container=0;" parent="69" vertex="1">
          <mxGeometry y="30" width="51" height="60" as="geometry" />
        </mxCell>
        <mxCell id="71" value="&lt;b&gt;&lt;font style=&quot;font-size: 16px;&quot;&gt;FLAG&lt;/font&gt;&lt;/b&gt;" style="text;html=1;strokeColor=none;fillColor=none;align=center;verticalAlign=middle;whiteSpace=wrap;rounded=0;" parent="69" vertex="1">
          <mxGeometry x="8" width="39" height="30" as="geometry" />
        </mxCell>
        <mxCell id="86" value="" style="shape=flexArrow;endArrow=classic;html=1;rounded=0;" parent="WIyWlLk6GJQsqaUBKTNV-1" edge="1">
          <mxGeometry width="50" height="50" relative="1" as="geometry">
            <mxPoint x="1391" y="638" as="sourcePoint" />
            <mxPoint x="1441" y="642" as="targetPoint" />
          </mxGeometry>
        </mxCell>
        <mxCell id="87" value="" style="shape=flexArrow;endArrow=classic;html=1;rounded=0;" parent="WIyWlLk6GJQsqaUBKTNV-1" edge="1">
          <mxGeometry width="50" height="50" relative="1" as="geometry">
            <mxPoint x="-269" y="748" as="sourcePoint" />
            <mxPoint x="-219" y="752" as="targetPoint" />
          </mxGeometry>
        </mxCell>
        <mxCell id="88" value="" style="group" parent="WIyWlLk6GJQsqaUBKTNV-1" vertex="1" connectable="0">
          <mxGeometry x="335" y="692" width="504" height="90" as="geometry" />
        </mxCell>
        <mxCell id="89" value="" style="group" parent="88" vertex="1" connectable="0">
          <mxGeometry width="51" height="90" as="geometry" />
        </mxCell>
        <mxCell id="90" value="1&lt;div&gt;&lt;/div&gt;" style="rounded=0;whiteSpace=wrap;html=1;fillColor=#dae8fc;strokeColor=#6c8ebf;container=0;" parent="89" vertex="1">
          <mxGeometry y="30" width="51" height="60" as="geometry" />
        </mxCell>
        <mxCell id="91" value="&lt;b&gt;&lt;font style=&quot;font-size: 16px;&quot;&gt;FLAG&lt;/font&gt;&lt;/b&gt;" style="text;html=1;strokeColor=none;fillColor=none;align=center;verticalAlign=middle;whiteSpace=wrap;rounded=0;" parent="89" vertex="1">
          <mxGeometry x="8" width="39" height="30" as="geometry" />
        </mxCell>
        <mxCell id="92" value="" style="group" parent="88" vertex="1" connectable="0">
          <mxGeometry x="59" width="445" height="90" as="geometry" />
        </mxCell>
        <mxCell id="93" value="" style="group" parent="92" vertex="1" connectable="0">
          <mxGeometry x="83" y="1" width="362" height="89" as="geometry" />
        </mxCell>
        <mxCell id="94" value="&lt;b&gt;CreditCard&lt;/b&gt;" style="text;html=1;align=center;verticalAlign=middle;whiteSpace=wrap;rounded=0;fontSize=16;container=0;" parent="93" vertex="1">
          <mxGeometry x="150" width="60" height="30" as="geometry" />
        </mxCell>
        <mxCell id="95" value="10&lt;div&gt;&lt;/div&gt;" style="rounded=0;whiteSpace=wrap;html=1;fillColor=#fff2cc;strokeColor=#d6b656;container=0;" parent="93" vertex="1">
          <mxGeometry x="286" y="29" width="76" height="60" as="geometry" />
        </mxCell>
        <mxCell id="96" value="2025&lt;div&gt;&lt;/div&gt;" style="rounded=0;whiteSpace=wrap;html=1;fillColor=#fff2cc;strokeColor=#d6b656;container=0;" parent="93" vertex="1">
          <mxGeometry y="29" width="76" height="60" as="geometry" />
        </mxCell>
        <mxCell id="97" value="6512&lt;div&gt;&lt;/div&gt;" style="rounded=0;whiteSpace=wrap;html=1;fillColor=#fff2cc;strokeColor=#d6b656;container=0;" parent="93" vertex="1">
          <mxGeometry x="115" y="29" width="171" height="60" as="geometry" />
        </mxCell>
        <mxCell id="98" value="4&lt;div&gt;&lt;/div&gt;" style="rounded=0;whiteSpace=wrap;html=1;fillColor=#ffe6cc;strokeColor=#d79b00;container=0;" parent="93" vertex="1">
          <mxGeometry x="74" y="29" width="42" height="60" as="geometry" />
        </mxCell>
        <mxCell id="99" value="" style="group" parent="92" vertex="1" connectable="0">
          <mxGeometry width="76" height="90" as="geometry" />
        </mxCell>
        <mxCell id="100" value="2025&lt;div&gt;&lt;/div&gt;" style="rounded=0;whiteSpace=wrap;html=1;fillColor=#fff2cc;strokeColor=#d6b656;container=0;" parent="99" vertex="1">
          <mxGeometry y="30" width="76" height="60" as="geometry" />
        </mxCell>
        <mxCell id="101" value="&lt;b&gt;&lt;font style=&quot;font-size: 16px;&quot;&gt;KEY&lt;/font&gt;&lt;/b&gt;" style="text;html=1;strokeColor=none;fillColor=none;align=center;verticalAlign=middle;whiteSpace=wrap;rounded=0;" parent="99" vertex="1">
          <mxGeometry x="8" width="60" height="30" as="geometry" />
        </mxCell>
        <mxCell id="102" value="" style="group" parent="WIyWlLk6GJQsqaUBKTNV-1" vertex="1" connectable="0">
          <mxGeometry x="-193" y="692" width="504" height="90" as="geometry" />
        </mxCell>
        <mxCell id="103" value="" style="group" parent="102" vertex="1" connectable="0">
          <mxGeometry width="51" height="90" as="geometry" />
        </mxCell>
        <mxCell id="104" value="1&lt;div&gt;&lt;/div&gt;" style="rounded=0;whiteSpace=wrap;html=1;fillColor=#dae8fc;strokeColor=#6c8ebf;container=0;" parent="103" vertex="1">
          <mxGeometry y="30" width="51" height="60" as="geometry" />
        </mxCell>
        <mxCell id="105" value="&lt;b&gt;&lt;font style=&quot;font-size: 16px;&quot;&gt;FLAG&lt;/font&gt;&lt;/b&gt;" style="text;html=1;strokeColor=none;fillColor=none;align=center;verticalAlign=middle;whiteSpace=wrap;rounded=0;" parent="103" vertex="1">
          <mxGeometry x="8" width="39" height="30" as="geometry" />
        </mxCell>
        <mxCell id="106" value="" style="group" parent="102" vertex="1" connectable="0">
          <mxGeometry x="59" width="445" height="90" as="geometry" />
        </mxCell>
        <mxCell id="107" value="" style="group" parent="106" vertex="1" connectable="0">
          <mxGeometry x="83" y="1" width="362" height="89" as="geometry" />
        </mxCell>
        <mxCell id="108" value="&lt;b&gt;CreditCard&lt;/b&gt;" style="text;html=1;align=center;verticalAlign=middle;whiteSpace=wrap;rounded=0;fontSize=16;container=0;" parent="107" vertex="1">
          <mxGeometry x="150" width="60" height="30" as="geometry" />
        </mxCell>
        <mxCell id="109" value="200&lt;div&gt;&lt;/div&gt;" style="rounded=0;whiteSpace=wrap;html=1;fillColor=#fff2cc;strokeColor=#d6b656;container=0;" parent="107" vertex="1">
          <mxGeometry x="286" y="29" width="76" height="60" as="geometry" />
        </mxCell>
        <mxCell id="110" value="4504&lt;div&gt;&lt;/div&gt;" style="rounded=0;whiteSpace=wrap;html=1;fillColor=#fff2cc;strokeColor=#d6b656;container=0;" parent="107" vertex="1">
          <mxGeometry y="29" width="76" height="60" as="geometry" />
        </mxCell>
        <mxCell id="111" value="1818&lt;div&gt;&lt;/div&gt;" style="rounded=0;whiteSpace=wrap;html=1;fillColor=#fff2cc;strokeColor=#d6b656;container=0;" parent="107" vertex="1">
          <mxGeometry x="115" y="29" width="171" height="60" as="geometry" />
        </mxCell>
        <mxCell id="112" value="4&lt;div&gt;&lt;/div&gt;" style="rounded=0;whiteSpace=wrap;html=1;fillColor=#ffe6cc;strokeColor=#d79b00;container=0;" parent="107" vertex="1">
          <mxGeometry x="74" y="29" width="42" height="60" as="geometry" />
        </mxCell>
        <mxCell id="113" value="" style="group" parent="106" vertex="1" connectable="0">
          <mxGeometry width="76" height="90" as="geometry" />
        </mxCell>
        <mxCell id="114" value="4504&lt;div&gt;&lt;/div&gt;" style="rounded=0;whiteSpace=wrap;html=1;fillColor=#fff2cc;strokeColor=#d6b656;container=0;" parent="113" vertex="1">
          <mxGeometry y="30" width="76" height="60" as="geometry" />
        </mxCell>
        <mxCell id="115" value="&lt;b&gt;&lt;font style=&quot;font-size: 16px;&quot;&gt;KEY&lt;/font&gt;&lt;/b&gt;" style="text;html=1;strokeColor=none;fillColor=none;align=center;verticalAlign=middle;whiteSpace=wrap;rounded=0;" parent="113" vertex="1">
          <mxGeometry x="8" width="60" height="30" as="geometry" />
        </mxCell>
        <mxCell id="116" value="" style="group" parent="WIyWlLk6GJQsqaUBKTNV-1" vertex="1" connectable="0">
          <mxGeometry x="864" y="692" width="498" height="90" as="geometry" />
        </mxCell>
        <mxCell id="117" value="EMPTY" style="rounded=0;whiteSpace=wrap;html=1;" parent="116" vertex="1">
          <mxGeometry x="51" y="30" width="447" height="60" as="geometry" />
        </mxCell>
        <mxCell id="118" value="" style="group" parent="116" vertex="1" connectable="0">
          <mxGeometry width="51" height="90" as="geometry" />
        </mxCell>
        <mxCell id="119" value="0&lt;div&gt;&lt;/div&gt;" style="rounded=0;whiteSpace=wrap;html=1;fillColor=#dae8fc;strokeColor=#6c8ebf;container=0;" parent="118" vertex="1">
          <mxGeometry y="30" width="51" height="60" as="geometry" />
        </mxCell>
        <mxCell id="120" value="&lt;b&gt;&lt;font style=&quot;font-size: 16px;&quot;&gt;FLAG&lt;/font&gt;&lt;/b&gt;" style="text;html=1;strokeColor=none;fillColor=none;align=center;verticalAlign=middle;whiteSpace=wrap;rounded=0;" parent="118" vertex="1">
          <mxGeometry x="8" width="39" height="30" as="geometry" />
        </mxCell>
        <mxCell id="127" value="" style="group" parent="WIyWlLk6GJQsqaUBKTNV-1" vertex="1" connectable="0">
          <mxGeometry x="-305" y="185" width="76" height="100" as="geometry" />
        </mxCell>
        <mxCell id="125" value="&lt;div&gt;INT&lt;/div&gt;(4B)" style="rounded=0;whiteSpace=wrap;html=1;fillColor=#f8cecc;strokeColor=#b85450;container=0;gradientColor=#ea6b66;" parent="127" vertex="1">
          <mxGeometry y="40" width="76" height="60" as="geometry" />
        </mxCell>
        <mxCell id="126" value="&lt;b&gt;&lt;font style=&quot;font-size: 16px;&quot;&gt;STORED ENTRIES&lt;/font&gt;&lt;/b&gt;" style="text;html=1;strokeColor=none;fillColor=none;align=center;verticalAlign=middle;whiteSpace=wrap;rounded=0;" parent="127" vertex="1">
          <mxGeometry x="8" width="60" height="30" as="geometry" />
        </mxCell>
        <mxCell id="134" value="" style="group" parent="WIyWlLk6GJQsqaUBKTNV-1" vertex="1" connectable="0">
          <mxGeometry x="-305" y="565" width="76" height="100" as="geometry" />
        </mxCell>
        <mxCell id="135" value="3" style="rounded=0;whiteSpace=wrap;html=1;fillColor=#f8cecc;strokeColor=#b85450;container=0;gradientColor=#ea6b66;" parent="134" vertex="1">
          <mxGeometry y="40" width="76" height="60" as="geometry" />
        </mxCell>
        <mxCell id="136" value="&lt;b&gt;&lt;font style=&quot;font-size: 16px;&quot;&gt;STORED ENTRIES&lt;/font&gt;&lt;/b&gt;" style="text;html=1;strokeColor=none;fillColor=none;align=center;verticalAlign=middle;whiteSpace=wrap;rounded=0;" parent="134" vertex="1">
          <mxGeometry x="8" width="60" height="30" as="geometry" />
        </mxCell>
        <mxCell id="137" value="&lt;font style=&quot;font-size: 30px;&quot;&gt;&lt;b&gt;RESIZE&lt;/b&gt;&lt;/font&gt;" style="shape=process;whiteSpace=wrap;html=1;backgroundOutline=1;fillColor=#f5f5f5;gradientColor=#b3b3b3;strokeColor=#666666;" parent="WIyWlLk6GJQsqaUBKTNV-1" vertex="1">
          <mxGeometry x="579" y="455" width="164" height="60" as="geometry" />
        </mxCell>
        <mxCell id="H7bEyxn8mymeNR0-6cWi-138" value="" style="group" parent="WIyWlLk6GJQsqaUBKTNV-1" vertex="1" connectable="0">
          <mxGeometry x="98" y="-213" width="256" height="223" as="geometry" />
        </mxCell>
        <mxCell id="9RUNyQODaoSe4tNgS9Tt-29" value="" style="rounded=0;whiteSpace=wrap;html=1;" parent="H7bEyxn8mymeNR0-6cWi-138" vertex="1">
          <mxGeometry y="128" width="256" height="53" as="geometry" />
        </mxCell>
        <mxCell id="H7bEyxn8mymeNR0-6cWi-137" value="" style="group" parent="H7bEyxn8mymeNR0-6cWi-138" vertex="1" connectable="0">
          <mxGeometry x="14" width="219" height="223" as="geometry" />
        </mxCell>
        <mxCell id="9RUNyQODaoSe4tNgS9Tt-0" value="&lt;div&gt;ID&lt;/div&gt;(4B)" style="rounded=0;whiteSpace=wrap;html=1;fillColor=#fff2cc;strokeColor=#d6b656;container=0;" parent="H7bEyxn8mymeNR0-6cWi-137" vertex="1">
          <mxGeometry x="71" width="76" height="60" as="geometry" />
        </mxCell>
        <mxCell id="9RUNyQODaoSe4tNgS9Tt-3" value="&lt;font color=&quot;#00ff80&quot; style=&quot;--darkreader-inline-color: #1aff8d; font-size: 25px;&quot; data-darkreader-inline-color=&quot;&quot;&gt;&lt;b&gt;KEY&lt;/b&gt;&lt;/font&gt;" style="text;whiteSpace=wrap;html=1;" parent="H7bEyxn8mymeNR0-6cWi-137" vertex="1">
          <mxGeometry x="79" y="76" width="56.67" height="52" as="geometry" />
        </mxCell>
        <mxCell id="9RUNyQODaoSe4tNgS9Tt-30" value="4 Bytes" style="text;html=1;align=center;verticalAlign=middle;whiteSpace=wrap;rounded=0;fontSize=16;" parent="H7bEyxn8mymeNR0-6cWi-137" vertex="1">
          <mxGeometry y="138" width="60" height="30" as="geometry" />
        </mxCell>
        <mxCell id="9RUNyQODaoSe4tNgS9Tt-31" value="ID" style="text;html=1;align=center;verticalAlign=middle;whiteSpace=wrap;rounded=0;fontSize=16;" parent="H7bEyxn8mymeNR0-6cWi-137" vertex="1">
          <mxGeometry x="70" y="138" width="72" height="30" as="geometry" />
        </mxCell>
        <mxCell id="9RUNyQODaoSe4tNgS9Tt-32" value="Integer" style="text;html=1;align=center;verticalAlign=middle;whiteSpace=wrap;rounded=0;fontSize=16;" parent="H7bEyxn8mymeNR0-6cWi-137" vertex="1">
          <mxGeometry x="147" y="138" width="72" height="30" as="geometry" />
        </mxCell>
        <mxCell id="9RUNyQODaoSe4tNgS9Tt-34" value="" style="endArrow=none;html=1;rounded=0;fontSize=12;startSize=8;endSize=8;curved=1;entryX=0.317;entryY=0.044;entryDx=0;entryDy=0;entryPerimeter=0;exitX=0.317;exitY=1.016;exitDx=0;exitDy=0;exitPerimeter=0;" parent="H7bEyxn8mymeNR0-6cWi-137" edge="1">
          <mxGeometry width="50" height="50" relative="1" as="geometry">
            <mxPoint x="147" y="182" as="sourcePoint" />
            <mxPoint x="147" y="130" as="targetPoint" />
          </mxGeometry>
        </mxCell>
        <mxCell id="9RUNyQODaoSe4tNgS9Tt-54" value="Total: 4 Bytes" style="text;html=1;align=center;verticalAlign=middle;whiteSpace=wrap;rounded=0;fontSize=16;" parent="H7bEyxn8mymeNR0-6cWi-137" vertex="1">
          <mxGeometry x="20" y="193" width="175.5" height="30" as="geometry" />
        </mxCell>
        <mxCell id="9RUNyQODaoSe4tNgS9Tt-33" value="" style="endArrow=none;html=1;rounded=0;fontSize=12;startSize=8;endSize=8;curved=1;entryX=0.317;entryY=0.044;entryDx=0;entryDy=0;entryPerimeter=0;exitX=0.317;exitY=1.016;exitDx=0;exitDy=0;exitPerimeter=0;" parent="H7bEyxn8mymeNR0-6cWi-138" source="9RUNyQODaoSe4tNgS9Tt-29" target="9RUNyQODaoSe4tNgS9Tt-29" edge="1">
          <mxGeometry width="50" height="50" relative="1" as="geometry">
            <mxPoint x="-311" y="-78" as="sourcePoint" />
            <mxPoint x="-261" y="-128" as="targetPoint" />
          </mxGeometry>
        </mxCell>
        <mxCell id="H7bEyxn8mymeNR0-6cWi-148" value="" style="group" parent="WIyWlLk6GJQsqaUBKTNV-1" vertex="1" connectable="0">
          <mxGeometry x="504" y="-276" width="362" height="422" as="geometry" />
        </mxCell>
        <mxCell id="UhFkNUntWND5Q1ETPN0j-16" value="" style="rounded=0;whiteSpace=wrap;html=1;fillColor=#f5f5f5;fontColor=#333333;strokeColor=#666666;movable=1;resizable=1;rotatable=1;deletable=1;editable=1;locked=0;connectable=1;" parent="H7bEyxn8mymeNR0-6cWi-148" vertex="1">
          <mxGeometry x="44" y="157" width="257" height="230" as="geometry" />
        </mxCell>
        <mxCell id="H7bEyxn8mymeNR0-6cWi-147" value="" style="group" parent="H7bEyxn8mymeNR0-6cWi-148" vertex="1" connectable="0">
          <mxGeometry width="362" height="422" as="geometry" />
        </mxCell>
        <mxCell id="UhFkNUntWND5Q1ETPN0j-30" value="" style="endArrow=none;html=1;rounded=0;fontSize=12;startSize=8;endSize=8;curved=1;movable=1;resizable=1;rotatable=1;deletable=1;editable=1;locked=0;connectable=1;" parent="H7bEyxn8mymeNR0-6cWi-147" edge="1">
          <mxGeometry width="50" height="50" relative="1" as="geometry">
            <mxPoint x="44" y="329" as="sourcePoint" />
            <mxPoint x="301" y="329" as="targetPoint" />
          </mxGeometry>
        </mxCell>
        <mxCell id="H7bEyxn8mymeNR0-6cWi-146" value="" style="group" parent="H7bEyxn8mymeNR0-6cWi-147" vertex="1" connectable="0">
          <mxGeometry width="362" height="422" as="geometry" />
        </mxCell>
        <mxCell id="UhFkNUntWND5Q1ETPN0j-26" value="" style="endArrow=none;html=1;rounded=0;fontSize=12;startSize=8;endSize=8;curved=1;movable=1;resizable=1;rotatable=1;deletable=1;editable=1;locked=0;connectable=1;" parent="H7bEyxn8mymeNR0-6cWi-146" edge="1">
          <mxGeometry width="50" height="50" relative="1" as="geometry">
            <mxPoint x="44" y="269" as="sourcePoint" />
            <mxPoint x="301" y="268" as="targetPoint" />
          </mxGeometry>
        </mxCell>
        <mxCell id="H7bEyxn8mymeNR0-6cWi-144" value="" style="group" parent="H7bEyxn8mymeNR0-6cWi-146" vertex="1" connectable="0">
          <mxGeometry width="362" height="422" as="geometry" />
        </mxCell>
        <mxCell id="UhFkNUntWND5Q1ETPN0j-25" value="" style="endArrow=none;html=1;rounded=0;fontSize=12;startSize=8;endSize=8;curved=1;movable=1;resizable=1;rotatable=1;deletable=1;editable=1;locked=0;connectable=1;" parent="H7bEyxn8mymeNR0-6cWi-144" edge="1">
          <mxGeometry width="50" height="50" relative="1" as="geometry">
            <mxPoint x="44" y="209" as="sourcePoint" />
            <mxPoint x="301" y="210" as="targetPoint" />
          </mxGeometry>
        </mxCell>
        <mxCell id="H7bEyxn8mymeNR0-6cWi-141" value="" style="group" parent="H7bEyxn8mymeNR0-6cWi-144" vertex="1" connectable="0">
          <mxGeometry width="362" height="422" as="geometry" />
        </mxCell>
        <mxCell id="DAYwhRXH55ruIlpb_jp8-28" value="" style="group" parent="H7bEyxn8mymeNR0-6cWi-141" vertex="1" connectable="0">
          <mxGeometry width="362" height="89" as="geometry" />
        </mxCell>
        <mxCell id="UhFkNUntWND5Q1ETPN0j-10" value="&lt;b&gt;CreditCard&lt;/b&gt;" style="text;html=1;align=center;verticalAlign=middle;whiteSpace=wrap;rounded=0;fontSize=16;container=0;" parent="DAYwhRXH55ruIlpb_jp8-28" vertex="1">
          <mxGeometry x="150" width="60" height="30" as="geometry" />
        </mxCell>
        <mxCell id="DAYwhRXH55ruIlpb_jp8-27" value="&lt;div&gt;Amount&lt;/div&gt;(4B)" style="rounded=0;whiteSpace=wrap;html=1;fillColor=#fff2cc;strokeColor=#d6b656;container=0;" parent="DAYwhRXH55ruIlpb_jp8-28" vertex="1">
          <mxGeometry x="286" y="29" width="76" height="60" as="geometry" />
        </mxCell>
        <mxCell id="UhFkNUntWND5Q1ETPN0j-7" value="&lt;div&gt;ID&lt;/div&gt;(4B)" style="rounded=0;whiteSpace=wrap;html=1;fillColor=#fff2cc;strokeColor=#d6b656;container=0;" parent="DAYwhRXH55ruIlpb_jp8-28" vertex="1">
          <mxGeometry y="29" width="76" height="60" as="geometry" />
        </mxCell>
        <mxCell id="UhFkNUntWND5Q1ETPN0j-8" value="&lt;div&gt;Pin&lt;/div&gt;(&amp;gt;=16B)" style="rounded=0;whiteSpace=wrap;html=1;fillColor=#fff2cc;strokeColor=#d6b656;container=0;" parent="DAYwhRXH55ruIlpb_jp8-28" vertex="1">
          <mxGeometry x="115" y="29" width="171" height="60" as="geometry" />
        </mxCell>
        <mxCell id="DAYwhRXH55ruIlpb_jp8-2" value="&lt;div&gt;Pin len&lt;/div&gt;(1B)" style="rounded=0;whiteSpace=wrap;html=1;fillColor=#ffe6cc;strokeColor=#d79b00;container=0;" parent="DAYwhRXH55ruIlpb_jp8-28" vertex="1">
          <mxGeometry x="74" y="29" width="42" height="60" as="geometry" />
        </mxCell>
        <mxCell id="H7bEyxn8mymeNR0-6cWi-140" value="" style="group" parent="H7bEyxn8mymeNR0-6cWi-141" vertex="1" connectable="0">
          <mxGeometry x="58" y="102" width="229" height="320" as="geometry" />
        </mxCell>
        <mxCell id="9RUNyQODaoSe4tNgS9Tt-2" value="&lt;font color=&quot;#00ff80&quot; style=&quot;--darkreader-inline-color: #1aff8d;&quot; data-darkreader-inline-color=&quot;&quot;&gt;&lt;b&gt;&lt;font style=&quot;font-size: 25px;&quot;&gt;Value&lt;/font&gt;&lt;/b&gt;&lt;/font&gt;" style="text;whiteSpace=wrap;html=1;" parent="H7bEyxn8mymeNR0-6cWi-140" vertex="1">
          <mxGeometry x="80" width="66" height="52" as="geometry" />
        </mxCell>
        <mxCell id="9RUNyQODaoSe4tNgS9Tt-52" value="Total: 25 Bytes" style="text;html=1;align=center;verticalAlign=middle;whiteSpace=wrap;rounded=0;fontSize=16;" parent="H7bEyxn8mymeNR0-6cWi-140" vertex="1">
          <mxGeometry x="20" y="290" width="175.5" height="30" as="geometry" />
        </mxCell>
        <mxCell id="H7bEyxn8mymeNR0-6cWi-139" value="" style="group" parent="H7bEyxn8mymeNR0-6cWi-140" vertex="1" connectable="0">
          <mxGeometry y="56" width="229" height="229" as="geometry" />
        </mxCell>
        <mxCell id="UhFkNUntWND5Q1ETPN0j-17" value="ID" style="text;html=1;align=center;verticalAlign=middle;whiteSpace=wrap;rounded=0;fontSize=16;" parent="H7bEyxn8mymeNR0-6cWi-139" vertex="1">
          <mxGeometry x="80" y="9" width="72" height="30" as="geometry" />
        </mxCell>
        <mxCell id="UhFkNUntWND5Q1ETPN0j-19" value="4 Bytes" style="text;html=1;align=center;verticalAlign=middle;whiteSpace=wrap;rounded=0;fontSize=16;" parent="H7bEyxn8mymeNR0-6cWi-139" vertex="1">
          <mxGeometry y="9" width="60" height="30" as="geometry" />
        </mxCell>
        <mxCell id="UhFkNUntWND5Q1ETPN0j-21" value="" style="endArrow=none;html=1;rounded=0;fontSize=12;startSize=8;endSize=8;curved=1;entryX=0.336;entryY=0.008;entryDx=0;entryDy=0;entryPerimeter=0;movable=0;resizable=0;rotatable=0;deletable=0;editable=0;locked=1;connectable=0;" parent="H7bEyxn8mymeNR0-6cWi-139" target="UhFkNUntWND5Q1ETPN0j-16" edge="1">
          <mxGeometry width="50" height="50" relative="1" as="geometry">
            <mxPoint x="72" y="229" as="sourcePoint" />
            <mxPoint x="66" y="42" as="targetPoint" />
          </mxGeometry>
        </mxCell>
        <mxCell id="UhFkNUntWND5Q1ETPN0j-23" value="Integer" style="text;html=1;align=center;verticalAlign=middle;whiteSpace=wrap;rounded=0;fontSize=16;" parent="H7bEyxn8mymeNR0-6cWi-139" vertex="1">
          <mxGeometry x="157" y="9" width="72" height="30" as="geometry" />
        </mxCell>
        <mxCell id="UhFkNUntWND5Q1ETPN0j-24" value="" style="endArrow=none;html=1;rounded=0;fontSize=12;startSize=8;endSize=8;curved=1;entryX=0.336;entryY=0.008;entryDx=0;entryDy=0;entryPerimeter=0;movable=0;resizable=0;rotatable=0;deletable=0;editable=0;locked=1;connectable=0;" parent="H7bEyxn8mymeNR0-6cWi-139" edge="1">
          <mxGeometry width="50" height="50" relative="1" as="geometry">
            <mxPoint x="152" y="227" as="sourcePoint" />
            <mxPoint x="152" as="targetPoint" />
          </mxGeometry>
        </mxCell>
        <mxCell id="UhFkNUntWND5Q1ETPN0j-27" value="1 Byte" style="text;html=1;align=center;verticalAlign=middle;whiteSpace=wrap;rounded=0;fontSize=16;" parent="H7bEyxn8mymeNR0-6cWi-139" vertex="1">
          <mxGeometry y="69" width="60" height="30" as="geometry" />
        </mxCell>
        <mxCell id="UhFkNUntWND5Q1ETPN0j-28" value="Pin len" style="text;html=1;align=center;verticalAlign=middle;whiteSpace=wrap;rounded=0;fontSize=16;" parent="H7bEyxn8mymeNR0-6cWi-139" vertex="1">
          <mxGeometry x="80" y="69" width="72" height="30" as="geometry" />
        </mxCell>
        <mxCell id="UhFkNUntWND5Q1ETPN0j-29" value="Byte" style="text;html=1;align=center;verticalAlign=middle;whiteSpace=wrap;rounded=0;fontSize=16;" parent="H7bEyxn8mymeNR0-6cWi-139" vertex="1">
          <mxGeometry x="157" y="69" width="72" height="30" as="geometry" />
        </mxCell>
        <mxCell id="UhFkNUntWND5Q1ETPN0j-31" value="16 Bytes" style="text;html=1;align=center;verticalAlign=middle;whiteSpace=wrap;rounded=0;fontSize=16;" parent="H7bEyxn8mymeNR0-6cWi-139" vertex="1">
          <mxGeometry y="129" width="67" height="30" as="geometry" />
        </mxCell>
        <mxCell id="UhFkNUntWND5Q1ETPN0j-32" value="4 Bytes" style="text;html=1;align=center;verticalAlign=middle;whiteSpace=wrap;rounded=0;fontSize=16;" parent="H7bEyxn8mymeNR0-6cWi-139" vertex="1">
          <mxGeometry y="189" width="60" height="30" as="geometry" />
        </mxCell>
        <mxCell id="UhFkNUntWND5Q1ETPN0j-33" value="Pin" style="text;html=1;align=center;verticalAlign=middle;whiteSpace=wrap;rounded=0;fontSize=16;" parent="H7bEyxn8mymeNR0-6cWi-139" vertex="1">
          <mxGeometry x="80" y="129" width="72" height="30" as="geometry" />
        </mxCell>
        <mxCell id="UhFkNUntWND5Q1ETPN0j-34" value="Amount" style="text;html=1;align=center;verticalAlign=middle;whiteSpace=wrap;rounded=0;fontSize=16;" parent="H7bEyxn8mymeNR0-6cWi-139" vertex="1">
          <mxGeometry x="80" y="189" width="72" height="30" as="geometry" />
        </mxCell>
        <mxCell id="UhFkNUntWND5Q1ETPN0j-35" value="String" style="text;html=1;align=center;verticalAlign=middle;whiteSpace=wrap;rounded=0;fontSize=16;" parent="H7bEyxn8mymeNR0-6cWi-139" vertex="1">
          <mxGeometry x="157" y="129" width="72" height="30" as="geometry" />
        </mxCell>
        <mxCell id="UhFkNUntWND5Q1ETPN0j-36" value="Integer" style="text;html=1;align=center;verticalAlign=middle;whiteSpace=wrap;rounded=0;fontSize=16;" parent="H7bEyxn8mymeNR0-6cWi-139" vertex="1">
          <mxGeometry x="157" y="189" width="72" height="30" as="geometry" />
        </mxCell>
      </root>
    </mxGraphModel>
  </diagram>
  <diagram id="PypnTWGg4owzmps0ekAj" name="Details">
    <mxGraphModel dx="2469" dy="674" grid="0" gridSize="10" guides="1" tooltips="1" connect="1" arrows="1" fold="1" page="0" pageScale="1" pageWidth="850" pageHeight="1100" math="0" shadow="0">
      <root>
        <mxCell id="0" />
        <mxCell id="1" parent="0" />
        <mxCell id="AakZq45WI4A0fORZxVml-1" value="" style="group" parent="1" vertex="1" connectable="0">
          <mxGeometry x="-975.5" y="251" width="315.5" height="216" as="geometry" />
        </mxCell>
        <mxCell id="AakZq45WI4A0fORZxVml-2" value="" style="whiteSpace=wrap;html=1;aspect=fixed;fillColor=#eeeeee;strokeColor=#36393d;" parent="AakZq45WI4A0fORZxVml-1" vertex="1">
          <mxGeometry x="53.5" y="1.5" width="214.5" height="214.5" as="geometry" />
        </mxCell>
        <mxCell id="AakZq45WI4A0fORZxVml-3" value="&lt;h1 style=&quot;font-size: 20px; line-height: 40%;&quot;&gt;&lt;span style=&quot;font-weight: normal;&quot;&gt;Max Size Of Entries&amp;nbsp;&lt;/span&gt;&lt;/h1&gt;&lt;h1 style=&quot;font-size: 20px; line-height: 40%;&quot;&gt;&lt;span style=&quot;font-weight: normal;&quot;&gt;*&amp;nbsp;&lt;/span&gt;&lt;/h1&gt;&lt;h1 style=&quot;font-size: 20px; line-height: 40%;&quot;&gt;&lt;span style=&quot;font-weight: normal;&quot;&gt;Size Of Entry&amp;nbsp;&lt;/span&gt;&lt;/h1&gt;&lt;p style=&quot;font-size: 20px; line-height: 40%;&quot;&gt;&lt;font style=&quot;font-size: 20px;&quot;&gt;+&lt;/font&gt;&lt;/p&gt;&lt;p style=&quot;font-size: 20px; line-height: 40%;&quot;&gt;&lt;font style=&quot;font-size: 20px;&quot;&gt;&amp;nbsp;4 (Prev Entries)&lt;/font&gt;&lt;/p&gt;" style="text;html=1;strokeColor=none;fillColor=none;spacing=5;spacingTop=-20;whiteSpace=wrap;overflow=hidden;rounded=0;align=center;" parent="AakZq45WI4A0fORZxVml-1" vertex="1">
          <mxGeometry y="80" width="315.5" height="135" as="geometry" />
        </mxCell>
        <mxCell id="AakZq45WI4A0fORZxVml-4" value="&lt;h1 style=&quot;border-color: var(--border-color); color: rgb(0, 0, 0); font-family: Helvetica; font-style: normal; font-variant-ligatures: normal; font-variant-caps: normal; letter-spacing: normal; orphans: 2; text-indent: 0px; text-transform: none; widows: 2; word-spacing: 0px; -webkit-text-stroke-width: 0px; background-color: rgb(255, 255, 255); text-decoration-thickness: initial; text-decoration-style: initial; text-decoration-color: initial; font-size: 20px; line-height: 50%;&quot;&gt;&lt;font style=&quot;border-color: var(--border-color); font-size: 20px;&quot;&gt;File Size&amp;nbsp;&lt;/font&gt;&lt;/h1&gt;" style="text;whiteSpace=wrap;html=1;align=center;" parent="AakZq45WI4A0fORZxVml-1" vertex="1">
          <mxGeometry x="98.25" width="125" height="73" as="geometry" />
        </mxCell>
        <mxCell id="AakZq45WI4A0fORZxVml-5" value="" style="endArrow=none;html=1;rounded=0;exitX=0;exitY=0.25;exitDx=0;exitDy=0;entryX=1;entryY=0.25;entryDx=0;entryDy=0;" parent="AakZq45WI4A0fORZxVml-1" source="AakZq45WI4A0fORZxVml-2" target="AakZq45WI4A0fORZxVml-2" edge="1">
          <mxGeometry width="50" height="50" relative="1" as="geometry">
            <mxPoint x="420.5" y="74" as="sourcePoint" />
            <mxPoint x="470.5" y="24" as="targetPoint" />
          </mxGeometry>
        </mxCell>
        <mxCell id="n73naVxyAZG9kpemjOxY-4" value="" style="group" parent="1" vertex="1" connectable="0">
          <mxGeometry x="-597" y="246" width="336" height="220" as="geometry" />
        </mxCell>
        <mxCell id="n73naVxyAZG9kpemjOxY-3" value="&lt;div style=&quot;text-align: left; line-height: 200%;&quot;&gt;&lt;span style=&quot;font-size: 20px; background-color: initial;&quot;&gt;&amp;nbsp;-Resize&#39;s the size of the file by 2.&lt;/span&gt;&lt;/div&gt;&lt;font style=&quot;font-size: 20px;&quot;&gt;&lt;div style=&quot;text-align: left; line-height: 200%;&quot;&gt;&lt;span style=&quot;background-color: initial;&quot;&gt;&amp;nbsp;-Zero&#39;s all the flag positions.&lt;/span&gt;&lt;/div&gt;&lt;div style=&quot;text-align: left; line-height: 140%;&quot;&gt;&lt;font style=&quot;background-color: initial;&quot;&gt;&amp;nbsp;-Put&#39;s the previous items to resized&amp;nbsp; &amp;nbsp; &amp;nbsp; &amp;nbsp;file (with new hash&lt;/font&gt;&lt;span style=&quot;background-color: initial;&quot;&gt;).&lt;/span&gt;&lt;/div&gt;&lt;/font&gt;" style="rounded=0;whiteSpace=wrap;html=1;fillColor=#f5f5f5;gradientColor=#b3b3b3;strokeColor=#666666;" parent="n73naVxyAZG9kpemjOxY-4" vertex="1">
          <mxGeometry y="62" width="336" height="158" as="geometry" />
        </mxCell>
        <mxCell id="n73naVxyAZG9kpemjOxY-1" value="&lt;font style=&quot;font-size: 30px;&quot;&gt;&lt;b&gt;RESIZE&lt;/b&gt;&lt;/font&gt;" style="shape=process;whiteSpace=wrap;html=1;backgroundOutline=1;fillColor=#f5f5f5;gradientColor=#b3b3b3;strokeColor=#666666;" parent="n73naVxyAZG9kpemjOxY-4" vertex="1">
          <mxGeometry x="83" width="164" height="60" as="geometry" />
        </mxCell>
        <mxCell id="PaZuWKfPvtW26bqWn_ic-9" value="" style="group" vertex="1" connectable="0" parent="1">
          <mxGeometry x="-1276" y="250" width="315.5" height="288" as="geometry" />
        </mxCell>
        <mxCell id="PaZuWKfPvtW26bqWn_ic-5" value="" style="whiteSpace=wrap;html=1;fillColor=#eeeeee;strokeColor=#36393d;" vertex="1" parent="PaZuWKfPvtW26bqWn_ic-9">
          <mxGeometry x="50.75" width="214" height="288" as="geometry" />
        </mxCell>
        <mxCell id="PaZuWKfPvtW26bqWn_ic-6" value="&lt;h1 style=&quot;border-color: var(--border-color); color: rgb(0, 0, 0); font-family: Helvetica; font-style: normal; font-variant-ligatures: normal; font-variant-caps: normal; letter-spacing: normal; orphans: 2; text-indent: 0px; text-transform: none; widows: 2; word-spacing: 0px; -webkit-text-stroke-width: 0px; background-color: rgb(255, 255, 255); text-decoration-thickness: initial; text-decoration-style: initial; text-decoration-color: initial; font-size: 20px; line-height: 50%;&quot;&gt;&lt;font style=&quot;border-color: var(--border-color); font-size: 20px;&quot;&gt;Offset&lt;/font&gt;&lt;/h1&gt;" style="text;whiteSpace=wrap;html=1;align=center;" vertex="1" parent="PaZuWKfPvtW26bqWn_ic-9">
          <mxGeometry x="95.25" y="5" width="125" height="73" as="geometry" />
        </mxCell>
        <mxCell id="PaZuWKfPvtW26bqWn_ic-7" value="" style="endArrow=none;html=1;rounded=0;exitX=0;exitY=0.25;exitDx=0;exitDy=0;entryX=1;entryY=0.25;entryDx=0;entryDy=0;" edge="1" parent="PaZuWKfPvtW26bqWn_ic-9">
          <mxGeometry width="50" height="50" relative="1" as="geometry">
            <mxPoint x="50.75" y="55.625" as="sourcePoint" />
            <mxPoint x="264.75" y="55.625" as="targetPoint" />
          </mxGeometry>
        </mxCell>
        <mxCell id="7PX-3Xf2D0vAk00eK6zj-3" value="&lt;h1 style=&quot;border-color: var(--border-color); font-size: 20px; line-height: 50%;&quot;&gt;&lt;span style=&quot;font-weight: normal;&quot;&gt;(Key.hashCode&lt;/span&gt;&amp;nbsp;&lt;/h1&gt;&lt;h1 style=&quot;border-color: var(--border-color); font-size: 20px; line-height: 8px;&quot;&gt;&lt;span style=&quot;border-color: var(--border-color); font-weight: 400;&quot;&gt;%&lt;/span&gt;&lt;/h1&gt;&lt;h1 style=&quot;border-color: var(--border-color); font-size: 20px; line-height: 8px;&quot;&gt;&lt;span style=&quot;border-color: var(--border-color); font-weight: normal;&quot;&gt;Max Entries)&amp;nbsp;&lt;/span&gt;&lt;/h1&gt;&lt;h1 style=&quot;font-size: 20px; line-height: 40%;&quot;&gt;&lt;p style=&quot;border-color: var(--border-color); font-weight: 400; line-height: 8px;&quot;&gt;*&lt;/p&gt;&lt;p style=&quot;border-color: var(--border-color); font-weight: 400; line-height: 8px;&quot;&gt;&lt;font style=&quot;border-color: var(--border-color);&quot;&gt;&amp;nbsp;Size Of Entry&lt;/font&gt;&lt;/p&gt;&lt;p style=&quot;border-color: var(--border-color); font-weight: 400; line-height: 8px;&quot;&gt;&lt;font style=&quot;border-color: var(--border-color);&quot;&gt;+&lt;/font&gt;&lt;/p&gt;&lt;p style=&quot;border-color: var(--border-color); font-weight: 400; line-height: 8px;&quot;&gt;&lt;font style=&quot;border-color: var(--border-color);&quot;&gt;4 (Stored Entries)&lt;/font&gt;&lt;/p&gt;&lt;/h1&gt;" style="text;html=1;strokeColor=none;fillColor=none;spacing=5;spacingTop=-20;whiteSpace=wrap;overflow=hidden;rounded=0;align=center;" parent="PaZuWKfPvtW26bqWn_ic-9" vertex="1">
          <mxGeometry y="78" width="315.5" height="179" as="geometry" />
        </mxCell>
      </root>
    </mxGraphModel>
  </diagram>
</mxfile>
